<?xml version="1.0" encoding="UTF-8" standalone="no"?>
<svg
   xmlns:dc="http://purl.org/dc/elements/1.1/"
   xmlns:cc="http://creativecommons.org/ns#"
   xmlns:rdf="http://www.w3.org/1999/02/22-rdf-syntax-ns#"
   xmlns:svg="http://www.w3.org/2000/svg"
   xmlns="http://www.w3.org/2000/svg"
   viewBox="0 0 671.92499 89.199997"
   xml:space="preserve"
   version="1.1"
   id="svg2"><metadata
     id="metadata8"><rdf:RDF><cc:Work
         rdf:about=""><dc:format>image/svg+xml</dc:format><dc:type
           rdf:resource="http://purl.org/dc/dcmitype/StillImage" /></cc:Work></rdf:RDF></metadata><defs
     id="defs6"><clipPath
       id="clipPath18"
       clipPathUnits="userSpaceOnUse"><path
         id="path20"
         d="m 0,0 5375,0 0,713.57 -5375,0 L 0,0 Z" /></clipPath></defs><g
     transform="matrix(1.25,0,0,-1.25,0,89.2)"
     id="g10"><g
       transform="scale(0.1,0.1)"
       id="g12"><g
         id="g14"><g
           clip-path="url(#clipPath18)"
           id="g16"><path
             id="path22"
             style="fill:#ffffff;fill-opacity:1;fill-rule:nonzero;stroke:none"
             d="m 1997.74,679.516 c -85.86,0 -166.58,-33.438 -227.3,-94.149 -60.71,-60.715 -94.15,-141.437 -94.15,-227.304 0,-85.86 33.44,-166.583 94.15,-227.297 60.72,-60.723 141.44,-94.1488 227.3,-94.1488 85.86,0 166.59,33.4258 227.3,94.1488 60.72,60.714 94.16,141.437 94.16,227.297 0,85.867 -33.44,166.589 -94.16,227.304 -60.71,60.711 -141.44,94.149 -227.3,94.149 z m 0,-676.9535 c -94.96,0 -184.23,36.9727 -251.38,104.1215 -67.14,67.148 -104.12,156.418 -104.12,251.379 0,94.96 36.98,184.238 104.12,251.375 67.15,67.148 156.42,104.132 251.38,104.132 94.96,0 184.23,-36.984 251.38,-104.132 67.15,-67.137 104.13,-156.415 104.13,-251.375 0,-94.961 -36.98,-184.231 -104.13,-251.379 C 2181.97,39.5352 2092.7,2.5625 1997.74,2.5625" /><path
             id="path24"
             style="fill:#ffffff;fill-opacity:1;fill-rule:nonzero;stroke:none"
             d="m 1997.74,369.547 0,-22.961" /><path
             id="path26"
             style="fill:#ffffff;fill-opacity:1;fill-rule:nonzero;stroke:none"
             d="m 2086.54,319.945 c -14.86,-35.144 -49.67,-59.804 -90.23,-59.804 -54.08,0 -97.93,43.839 -97.93,97.922 0,54.082 43.85,97.929 97.93,97.929 54.08,0 97.92,-43.847 97.92,-97.929 0,-13.516 -2.74,-26.399 -7.69,-38.118" /><path
             id="path28"
             style="fill:#ffffff;fill-opacity:1;fill-rule:nonzero;stroke:none"
             d="m 1964.85,525.895 c 7.29,35.886 99.02,99.257 99.02,99.257 0,0 -32.67,-52.882 -32.22,-118.535 0.14,-19.199 -24.59,-29.082 -43.04,-23.762 -18.44,5.325 -27.57,24.219 -23.76,43.04" /><path
             id="path30"
             style="fill:#ffffff;fill-opacity:1;fill-rule:nonzero;stroke:none"
             d="m 2030.63,190.238 c -7.28,-35.886 -99.02,-99.2653 -99.02,-99.2653 0,0 32.67,52.8793 32.22,118.5433 -0.13,19.199 24.59,29.082 43.04,23.761 18.45,-5.324 27.58,-24.23 23.76,-43.039" /><path
             id="path32"
             style="fill:#ffffff;fill-opacity:1;fill-rule:nonzero;stroke:none"
             d="m 1832.66,402.73 c -28.97,22.391 -45.28,132.696 -45.28,132.696 0,0 32.99,-52.676 92.09,-81.289 17.28,-8.371 15.22,-34.914 2.3,-49.114 -12.93,-14.187 -33.92,-14.031 -49.11,-2.293" /><path
             id="path34"
             style="fill:#ffffff;fill-opacity:1;fill-rule:nonzero;stroke:none"
             d="m 2162.82,313.395 c 28.98,-22.395 45.29,-132.696 45.29,-132.696 0,0 -33,52.684 -92.1,81.297 -17.28,8.359 -15.22,34.914 -2.29,49.102 12.93,14.199 33.92,14.035 49.1,2.297" /><path
             id="path36"
             style="fill:#ffffff;fill-opacity:1;fill-rule:nonzero;stroke:none"
             d="m 1873.12,240.941 c -34.27,-12.918 -136.73,31.055 -136.73,31.055 0,0 62.16,0.461 117.52,35.774 16.19,10.32 37.71,-5.364 43.01,-23.809 5.31,-18.457 -5.84,-36.242 -23.8,-43.02" /><path
             id="path38"
             style="fill:#ffffff;fill-opacity:1;fill-rule:nonzero;stroke:none"
             d="m 2122.37,475.18 c 34.26,12.922 136.72,-31.055 136.72,-31.055 0,0 -62.16,-0.457 -117.52,-35.762 -16.18,-10.32 -37.71,5.352 -43.01,23.809 -5.3,18.449 5.85,36.23 23.81,43.008" /><path
             id="path40"
             style="fill:#ffffff;fill-opacity:1;fill-rule:nonzero;stroke:none"
             d="m 355.504,679.516 c -85.863,0 -166.586,-33.438 -227.301,-94.149 C 67.4922,524.652 34.0547,443.93 34.0547,358.063 c 0,-85.86 33.4375,-166.583 94.1483,-227.297 60.715,-60.723 141.438,-94.1488 227.301,-94.1488 85.863,0 166.586,33.4258 227.301,94.1488 60.715,60.714 94.156,141.437 94.156,227.297 0,85.867 -33.441,166.589 -94.156,227.304 -60.715,60.711 -141.438,94.149 -227.301,94.149 z m 0,-676.9535 C 260.547,2.5625 171.27,39.5352 104.129,106.684 36.9766,173.832 0,263.102 0,358.063 c 0,94.96 36.9766,184.238 104.129,251.375 67.141,67.148 156.418,104.132 251.375,104.132 94.961,0 184.234,-36.984 251.383,-104.132 67.14,-67.137 104.121,-156.415 104.121,-251.375 0,-94.961 -36.981,-184.231 -104.121,-251.379 C 539.738,39.5352 450.465,2.5625 355.504,2.5625" /><path
             id="path42"
             style="fill:#ffffff;fill-opacity:1;fill-rule:nonzero;stroke:none"
             d="m 580.297,262.164 c -29.692,0 -59.383,9.356 -83.059,28.066 l -82.355,65.067 c -34.742,27.453 -89.16,27.453 -123.903,0 l -36.054,-28.484 0.019,-0.02 -41.175,-32.539 C 166.418,256.832 95,256.832 47.6484,294.254 L 6.46875,326.793 27.582,353.5 68.7617,320.961 c 34.7343,-27.449 89.1603,-27.449 123.8983,0 l 36.051,28.496 -0.016,0.02 41.172,32.539 c 47.356,37.422 118.778,37.422 166.129,0 l 82.356,-65.078 c 34.734,-27.45 89.16,-27.45 123.902,0 l 41.168,32.539 21.113,-26.719 -41.172,-32.528 c -23.675,-18.71 -53.371,-28.066 -83.066,-28.066" /><path
             id="path44"
             style="fill:#ffffff;fill-opacity:1;fill-rule:nonzero;stroke:none"
             d="m 1176.62,679.516 c -85.86,0 -166.59,-33.438 -227.3,-94.149 -60.711,-60.715 -94.148,-141.437 -94.148,-227.304 0,-85.86 33.437,-166.583 94.148,-227.297 60.71,-60.723 141.44,-94.1488 227.3,-94.1488 85.87,0 166.59,33.4258 227.31,94.1488 60.71,60.714 94.15,141.437 94.15,227.297 0,85.867 -33.44,166.589 -94.15,227.304 -60.72,60.711 -141.44,94.149 -227.31,94.149 z m 0,-676.9535 c -94.95,0 -184.233,36.9727 -251.374,104.1215 -67.148,67.148 -104.129,156.418 -104.129,251.379 0,94.96 36.981,184.238 104.129,251.375 67.141,67.148 156.424,104.132 251.374,104.132 94.96,0 184.24,-36.984 251.38,-104.132 67.15,-67.137 104.13,-156.415 104.13,-251.375 0,-94.961 -36.98,-184.231 -104.13,-251.379 C 1360.86,39.5352 1271.58,2.5625 1176.62,2.5625" /><path
             id="path46"
             style="fill:#ffffff;fill-opacity:1;fill-rule:nonzero;stroke:none"
             d="m 1181.08,630.055 c 38.51,0 77.02,-47.5 77.02,-106.106 0,-28.426 -13.02,-50.683 -35.75,-98.828 -3.83,-8.125 -29.95,-54.578 -41.27,-72.976" /><path
             id="path48"
             style="fill:#ffffff;fill-opacity:1;fill-rule:nonzero;stroke:none"
             d="m 1429.44,226 c -17.25,-34.434 -76.97,-47.598 -129.37,-21.355 -25.42,12.734 -39.48,34.335 -72.36,76.218 -5.55,7.071 -35.38,51.223 -46.76,69.59" /><path
             id="path50"
             style="fill:#ffffff;fill-opacity:1;fill-rule:nonzero;stroke:none"
             d="m 956.938,184.996 c -22.922,30.938 -7.684,90.164 39.402,125.059 22.84,16.922 48.47,19.707 100.69,30.117 8.81,1.758 61.68,8.426 83.2,10.281" /><path
             id="path52"
             style="fill:#ffffff;fill-opacity:1;fill-rule:nonzero;stroke:none"
             d="m 3157.33,358.063 c 0,-186.934 -151.53,-338.4771 -338.47,-338.4771 -186.94,0 -338.48,151.5431 -338.48,338.4771 0,186.933 151.54,338.476 338.48,338.476 186.94,0 338.47,-151.543 338.47,-338.476" /><path
             id="path54"
             style="fill:#ffffff;fill-opacity:1;fill-rule:nonzero;stroke:none"
             d="m 2818.86,679.516 c -85.86,0 -166.58,-33.438 -227.3,-94.149 -60.71,-60.715 -94.15,-141.437 -94.15,-227.304 0,-85.86 33.44,-166.583 94.15,-227.297 60.72,-60.723 141.44,-94.1488 227.3,-94.1488 85.87,0 166.59,33.4258 227.3,94.1488 60.72,60.714 94.15,141.437 94.15,227.297 0,85.867 -33.43,166.589 -94.15,227.304 -60.71,60.711 -141.43,94.149 -227.3,94.149 z m 0,-676.9535 c -94.95,0 -184.23,36.9727 -251.38,104.1215 -67.15,67.148 -104.12,156.418 -104.12,251.379 0,94.96 36.97,184.238 104.12,251.375 67.15,67.148 156.43,104.132 251.38,104.132 94.96,0 184.24,-36.984 251.38,-104.132 67.14,-67.137 104.13,-156.415 104.13,-251.375 0,-94.961 -36.99,-184.231 -104.13,-251.379 C 3003.1,39.5352 2913.82,2.5625 2818.86,2.5625" /><path
             id="path56"
             style="fill:#ffffff;fill-opacity:1;fill-rule:nonzero;stroke:none"
             d="m 3719.46,406.898 c 0,37.364 0.98,117.95 2.95,152.344 -27.53,-40.293 -137.6,-181.824 -234.91,-303.691 l 231.96,0 0,151.347 z m 0,-406.90190625 0,164.14890625 -344.99,0 0,93.359 325.34,405.937 123.83,0 0,-407.89 98.29,0 -11.8,-91.406 -86.49,0 0,-164.14890625 -104.18,0" /><path
             id="path58"
             style="fill:#ffffff;fill-opacity:1;fill-rule:nonzero;stroke:none"
             d="m 4601.6,306.246 -396.33,0 0,-214.289 438.05,0 -14.23,-91.96090625 -535.7,0 0,672.24590625 529.07,0 0,-91.984 -417.19,0 0,-182.051 396.33,0 0,-91.961" /><path
             id="path60"
             style="fill:#ffffff;fill-opacity:1;fill-rule:nonzero;stroke:none"
             d="m 5333.66,306.246 -396.33,0 0,-214.289 438.05,0 -14.23,-91.96090625 -535.7,0 0,672.24590625 529.07,0 0,-91.984 -417.19,0 0,-182.051 396.33,0 0,-91.961" /></g></g></g></g></svg>
