<?xml version="1.0" encoding="UTF-8"?>
<!DOCTYPE svg PUBLIC "-//W3C//DTD SVG 1.1//EN" "http://www.w3.org/Graphics/SVG/1.1/DTD/svg11.dtd">
<svg version="1.1" xmlns="http://www.w3.org/2000/svg" xmlns:xlink="http://www.w3.org/1999/xlink" x="0" y="0" width="376.821" height="23.729" viewBox="0, 0, 376.821, 23.729">
  <g id="Layer_1">
    <path d="M10.527,0.334 C13.368,0.334 15.707,0.668 19.049,1.671 L17.713,6.684 C14.035,5.848 12.699,5.681 11.028,5.681 C7.852,5.681 6.35,7.687 6.35,11.865 C6.35,16.376 7.852,18.382 11.028,18.382 C12.699,18.382 14.035,18.215 17.713,17.379 L19.049,22.392 C15.707,23.394 13.368,23.729 10.527,23.729 C2.339,23.729 0,18.382 0,11.865 C0,5.347 2.339,0.334 10.527,0.334" fill="#FEFEFE"/>
    <path d="M29.845,16.376 L27.507,16.376 C26.67,16.376 25.834,16.712 25.834,17.881 C25.834,19.051 26.836,19.385 27.507,19.385 C28.339,19.385 29.342,19.083 29.845,18.716 z M21.991,11.698 L21.154,7.187 C23.661,6.685 26.335,6.35 28.507,6.35 C33.019,6.35 35.526,7.353 35.526,12.031 L35.526,23.395 L29.845,23.395 L29.845,21.725 L29.779,21.725 C28.507,23.229 27.171,23.729 25.166,23.729 C21.824,23.729 20.153,21.222 20.153,18.382 C20.153,13.969 24.498,13.033 27.171,13.033 L29.845,13.033 L29.845,12.366 C29.845,11.128 28.807,11.03 27.171,11.03 C25.801,11.03 24.33,11.196 21.991,11.698" fill="#FEFEFE"/>
    <path d="M43.547,23.394 L37.867,23.394 L37.867,6.684 L43.547,6.684 L43.547,9.358 L43.614,9.358 C44.383,7.855 46.22,6.349 48.894,6.349 L48.894,11.698 C46.889,11.698 44.884,11.831 43.547,12.366 z" fill="#FEFEFE"/>
    <path d="M50.566,0 L56.247,0 L56.247,23.395 L50.566,23.395 z" fill="#FEFEFE"/>
    <path d="M59.923,10.695 L57.92,10.695 L57.92,7.017 L59.923,6.684 L60.592,2.006 L65.605,2.006 L65.605,6.684 L69.281,6.684 L69.281,10.695 L65.605,10.695 L65.605,17.681 C65.605,18.682 66.273,19.217 67.611,19.217 C67.943,19.217 68.446,19.15 68.948,19.05 L69.449,23.394 C68.446,23.596 66.607,23.729 65.605,23.729 C61.427,23.729 59.923,21.991 59.923,18.682 z" fill="#FEFEFE"/>
    <path d="M76.335,15.04 C76.335,17.714 76.87,19.051 78.84,19.051 C80.814,19.051 81.35,17.714 81.35,15.04 C81.35,12.366 80.814,11.03 78.84,11.03 C76.87,11.03 76.335,12.366 76.335,15.04 M70.319,15.04 C70.319,9.692 72.659,6.35 78.84,6.35 C85.023,6.35 87.363,9.692 87.363,15.04 C87.363,20.389 85.023,23.729 78.84,23.729 C72.659,23.729 70.319,20.389 70.319,15.04" fill="#FEFEFE"/>
    <path d="M95.051,23.394 L89.368,23.394 L89.368,6.684 L95.051,6.684 L95.051,8.69 L95.117,8.69 C96.387,7.186 98.058,6.349 100.066,6.349 C103.406,6.349 105.076,8.69 105.076,12.032 L105.076,23.394 L99.396,23.394 L99.396,13.369 C99.396,11.698 98.727,11.03 97.391,11.03 C96.554,11.03 95.72,11.364 95.051,11.698 z" fill="#FEFEFE"/>
    <path d="M127.603,0.333 C130.444,0.333 132.783,0.667 136.125,1.671 L134.789,6.684 C131.111,5.848 129.775,5.681 128.103,5.681 C124.928,5.681 123.426,7.686 123.426,11.863 C123.426,16.374 124.928,18.379 128.103,18.379 C129.775,18.379 131.111,18.212 134.789,17.377 L136.125,22.389 C132.783,23.395 130.444,23.726 127.603,23.726 C119.415,23.726 117.076,18.379 117.076,11.863 C117.076,5.346 119.415,0.333 127.603,0.333" fill="#FEFEFE"/>
    <path d="M142.61,15.037 C142.61,17.71 143.144,19.048 145.117,19.048 C147.089,19.048 147.623,17.71 147.623,15.037 C147.623,12.364 147.089,11.029 145.117,11.029 C143.144,11.029 142.61,12.364 142.61,15.037 M136.595,15.037 C136.595,9.691 138.933,6.349 145.117,6.349 C151.299,6.349 153.64,9.691 153.64,15.037 C153.64,20.384 151.299,23.726 145.117,23.726 C138.933,23.726 136.595,20.384 136.595,15.037" fill="#FEFEFE"/>
    <path d="M161.326,23.394 L155.645,23.394 L155.645,6.683 L161.326,6.683 L161.326,8.688 L161.392,8.688 C162.662,7.184 164.334,6.348 166.34,6.348 C169.682,6.348 171.352,8.688 171.352,12.03 L171.352,23.394 L165.671,23.394 L165.671,13.366 C165.671,11.696 165.002,11.029 163.666,11.029 C162.831,11.029 161.994,11.363 161.326,11.696 z" fill="#FEFEFE"/>
    <path d="M179.373,23.394 L173.691,23.394 L173.691,6.683 L179.373,6.683 L179.373,8.688 L179.44,8.688 C180.71,7.184 182.381,6.348 184.389,6.348 C187.727,6.348 189.399,8.688 189.399,12.03 L189.399,23.394 L183.719,23.394 L183.719,13.366 C183.719,11.696 183.051,11.029 181.713,11.029 C180.877,11.029 180.041,11.363 179.373,11.696 z" fill="#FEFEFE"/>
    <path d="M197.588,12.866 L202.099,12.866 C202.133,12.532 202.133,12.23 202.099,11.963 C202,11.162 201.465,10.692 200.095,10.692 C198.591,10.692 197.755,11.363 197.588,12.866 M197.588,16.374 C197.755,18.045 199.059,19.048 201.263,19.048 C202.501,19.048 204.105,19.048 206.444,18.38 L207.113,22.891 C204.772,23.558 202.601,23.726 200.429,23.726 C193.745,23.726 191.406,20.384 191.406,15.037 C191.406,9.691 193.745,6.349 200.429,6.349 C205.342,6.349 207.247,8.355 207.782,11.328 C208.049,12.798 207.948,14.538 207.715,16.374 z" fill="#FEFEFE"/>
    <path d="M218.477,6.348 C220.648,6.348 222.488,6.683 224.491,7.184 L223.491,11.696 C220.648,11.029 219.812,11.029 218.477,11.029 C216.807,11.029 215.469,12.03 215.469,15.036 C215.469,18.044 216.807,19.047 218.477,19.047 C219.812,19.047 220.648,19.047 223.491,18.379 L224.491,22.891 C222.488,23.394 220.648,23.726 218.477,23.726 C211.626,23.726 209.452,20.383 209.452,15.036 C209.452,9.691 211.626,6.348 218.477,6.348" fill="#FEFEFE"/>
    <path d="M227.501,10.692 L225.496,10.692 L225.496,7.017 L227.501,6.683 L228.169,2.004 L233.183,2.004 L233.183,6.683 L236.86,6.683 L236.86,10.692 L233.183,10.692 L233.183,17.677 C233.183,18.68 233.851,19.215 235.187,19.215 C235.521,19.215 236.024,19.148 236.526,19.047 L237.027,23.394 C236.024,23.593 234.185,23.726 233.183,23.726 C229.006,23.726 227.501,21.988 227.501,18.68 z" fill="#FEFEFE"/>
    <path d="M249.026,0.669 L255.042,0.669 L255.042,23.395 L249.026,23.395 z" fill="#FEFEFE"/>
    <path d="M263.397,23.394 L257.715,23.394 L257.715,6.684 L263.397,6.684 L263.397,8.688 L263.463,8.688 C264.733,7.184 266.404,6.35 268.409,6.35 C271.751,6.35 273.423,8.688 273.423,12.032 L273.423,23.394 L267.741,23.394 L267.741,13.368 C267.741,11.697 267.072,11.028 265.736,11.028 C264.901,11.028 264.064,11.363 263.397,11.697 z" fill="#FEFEFE"/>
    <path d="M281.444,23.394 L275.762,23.394 L275.762,6.684 L281.444,6.684 z M281.444,6.684 M281.444,5.679 L275.762,5.679 L275.762,0.668 L281.444,0.668 z" fill="#FEFEFE"/>
    <path d="M285.12,10.694 L283.116,10.694 L283.116,7.017 L285.12,6.684 L285.789,2.005 L290.803,2.005 L290.803,6.684 L294.48,6.684 L294.48,10.694 L290.803,10.694 L290.803,17.679 C290.803,18.682 291.469,19.215 292.806,19.215 C293.141,19.215 293.642,19.148 294.142,19.049 L294.645,23.394 C293.642,23.595 291.806,23.727 290.803,23.727 C286.624,23.727 285.12,21.989 285.12,18.682 z" fill="#FEFEFE"/>
    <path d="M302.333,23.394 L296.649,23.394 L296.649,6.684 L302.333,6.684 z M302.333,6.684 M302.333,5.679 L296.649,5.679 L296.649,0.668 L302.333,0.668 z" fill="#FEFEFE"/>
    <path d="M313.863,16.375 L311.525,16.375 C310.69,16.375 309.852,16.711 309.852,17.881 C309.852,19.049 310.856,19.384 311.525,19.384 C312.36,19.384 313.363,19.082 313.863,18.716 z M306.01,11.697 L305.175,7.185 C307.679,6.685 310.354,6.351 312.526,6.351 C317.038,6.351 319.545,7.352 319.545,12.032 L319.545,23.395 L313.863,23.395 L313.863,21.723 L313.798,21.723 C312.526,23.227 311.19,23.727 309.183,23.727 C305.841,23.727 304.172,21.221 304.172,18.381 C304.172,13.968 308.516,13.034 311.19,13.034 L313.863,13.034 L313.863,12.366 C313.863,11.129 312.825,11.028 311.19,11.028 C309.82,11.028 308.348,11.196 306.01,11.697" fill="#FEFEFE"/>
    <path d="M323.22,10.694 L321.215,10.694 L321.215,7.017 L323.22,6.684 L323.89,2.005 L328.901,2.005 L328.901,6.684 L332.579,6.684 L332.579,10.694 L328.901,10.694 L328.901,17.679 C328.901,18.682 329.571,19.215 330.908,19.215 C331.242,19.215 331.742,19.148 332.243,19.049 L332.745,23.394 C331.742,23.595 329.907,23.727 328.901,23.727 C324.726,23.727 323.22,21.989 323.22,18.682 z" fill="#FEFEFE"/>
    <path d="M340.434,23.394 L334.752,23.394 L334.752,6.684 L340.434,6.684 z M340.434,6.684 M340.434,5.679 L334.752,5.679 L334.752,0.668 L340.434,0.668 z" fill="#FEFEFE"/>
    <path d="M347.62,23.561 L342.104,6.684 L348.455,6.684 L351.229,17.378 L351.297,17.378 L354.136,6.684 L360.151,6.684 L354.569,23.561 z" fill="#FEFEFE"/>
    <path d="M366.468,12.866 L370.98,12.866 C371.014,12.533 371.014,12.231 370.98,11.965 C370.88,11.162 370.344,10.694 368.976,10.694 C367.472,10.694 366.633,11.363 366.468,12.866 M366.468,16.375 C366.633,18.046 367.939,19.049 370.145,19.049 C371.381,19.049 372.987,19.049 375.325,18.381 L375.994,22.892 C373.653,23.561 371.482,23.727 369.308,23.727 C362.625,23.727 360.284,20.387 360.284,15.037 C360.284,9.691 362.625,6.35 369.308,6.35 C374.222,6.35 376.128,8.354 376.661,11.329 C376.929,12.798 376.828,14.538 376.594,16.375 z" fill="#FEFEFE"/>
  </g>
</svg>
