<?xml version="1.0" encoding="UTF-8" standalone="no"?>
<!-- Created with Inkscape (http://www.inkscape.org/) -->

<svg
   xmlns:dc="http://purl.org/dc/elements/1.1/"
   xmlns:cc="http://creativecommons.org/ns#"
   xmlns:rdf="http://www.w3.org/1999/02/22-rdf-syntax-ns#"
   xmlns:svg="http://www.w3.org/2000/svg"
   xmlns="http://www.w3.org/2000/svg"
   xmlns:sodipodi="http://sodipodi.sourceforge.net/DTD/sodipodi-0.dtd"
   xmlns:inkscape="http://www.inkscape.org/namespaces/inkscape"
   width="302"
   height="111"
   viewBox="0 0 302 111"
   id="svg13621"
   version="1.1"
   inkscape:version="0.91 r13725"
   sodipodi:docname="3rrr.svg">
  <defs
     id="defs13623" />
  <sodipodi:namedview
     id="base"
     pagecolor="#ffffff"
     bordercolor="#666666"
     borderopacity="1.0"
     inkscape:pageopacity="0.0"
     inkscape:pageshadow="2"
     inkscape:zoom="0.51598204"
     inkscape:cx="372.04724"
     inkscape:cy="526.1811"
     inkscape:document-units="px"
     inkscape:current-layer="layer1"
     showgrid="false"
     units="px"
     inkscape:window-width="1280"
     inkscape:window-height="744"
     inkscape:window-x="-4"
     inkscape:window-y="-4"
     inkscape:window-maximized="1" />
  <metadata
     id="metadata13626">
    <rdf:RDF>
      <cc:Work
         rdf:about="">
        <dc:format>image/svg+xml</dc:format>
        <dc:type
           rdf:resource="http://purl.org/dc/dcmitype/StillImage" />
        <dc:title></dc:title>
      </cc:Work>
    </rdf:RDF>
  </metadata>
  <g
     inkscape:label="Layer 1"
     inkscape:groupmode="layer"
     id="layer1"
     transform="translate(0,-941.36216)">
    <g
       id="g13680"
       transform="matrix(6.7474866,0,0,6.7474866,-7.5018339,936.34395)">
      <rect
         id="rect13632"
         height="16.118999"
         width="6.7049999"
         y="0.91900003"
         x="1.26" />
      <path
         id="path13634"
         d="m 12.579,7.944 2.077,0 c 0.74,0 1.752,-0.159 1.752,-1.604 0,-1.016 -0.451,-1.603 -1.969,-1.603 l -1.86,0 0,3.207 z M 8.605,0.9 l 7.567,0 c 2.257,0 4.209,1.557 4.209,4.605 0,1.671 -0.615,3.431 -1.933,4.042 1.083,0.519 1.751,2.009 1.896,4.019 0.055,0.79 0.073,2.708 0.434,3.454 l -3.973,0 C 16.606,16.208 16.534,15.372 16.48,14.537 16.372,13.002 16.263,11.399 14.692,11.399 l -2.113,0 0,5.622 -3.974,0 0,-16.121 z"
         inkscape:connector-curvature="0" />
      <path
         id="path13636"
         d="m 25.051,7.944 2.077,0 c 0.74,0 1.751,-0.159 1.751,-1.604 0,-1.016 -0.45,-1.603 -1.967,-1.603 l -1.861,0 0,3.207 z M 21.077,0.9 l 7.567,0 c 2.258,0 4.209,1.557 4.209,4.605 0,1.671 -0.614,3.431 -1.934,4.042 1.084,0.519 1.753,2.009 1.896,4.019 0.054,0.79 0.073,2.708 0.434,3.454 l -3.974,0 C 29.077,16.208 29.004,15.372 28.95,14.537 28.843,13.002 28.734,11.399 27.163,11.399 l -2.113,0 0,5.622 -3.974,0 0,-16.121 z"
         inkscape:connector-curvature="0" />
      <path
         id="path13638"
         d="m 37.522,7.944 2.078,0 c 0.74,0 1.751,-0.159 1.751,-1.604 0,-1.016 -0.451,-1.603 -1.968,-1.603 l -1.86,0 0,3.207 z M 33.549,0.9 l 7.567,0 c 2.257,0 4.208,1.557 4.208,4.605 0,1.671 -0.614,3.431 -1.933,4.042 1.084,0.519 1.752,2.009 1.896,4.019 0.055,0.79 0.072,2.708 0.434,3.454 l -3.974,0 c -0.199,-0.812 -0.271,-1.648 -0.324,-2.483 -0.109,-1.535 -0.217,-3.138 -1.789,-3.138 l -2.112,0 0,5.622 -3.974,0 0,-16.121 z"
         inkscape:connector-curvature="0" />
      <polygon
         id="polygon13640"
         points="9.677,14.104 12.107,14.104 12.107,14.752 9.677,14.752 9.677,15.634 9.125,15.634 9.125,13.222 9.677,13.222 "
         style="fill:#ffffff" />
      <polygon
         id="polygon13642"
         points="9.126,12.401 10.271,12.401 10.271,11.209 9.126,11.209 9.126,10.562 12.107,10.562 12.107,11.209 10.822,11.209 10.822,12.401 12.107,12.401 12.107,13.048 9.126,13.048 "
         style="fill:#ffffff" />
      <path
         id="path13644"
         d="m 10.475,9.681 0,-0.71 c 0,-0.288 -0.125,-0.445 -0.426,-0.445 -0.288,0 -0.413,0.157 -0.413,0.445 l 0,0.71 0.839,0 z m -1.349,0.647 0,-1.587 c 0,-0.528 0.372,-0.862 0.822,-0.862 0.351,0 0.614,0.14 0.748,0.466 l 0.008,0 C 10.787,8.027 11.101,7.936 11.401,7.916 11.589,7.903 11.94,7.908 12.107,7.792 l 0,0.648 c -0.188,0.078 -0.476,0.07 -0.714,0.103 -0.313,0.045 -0.451,0.165 -0.451,0.49 l 0,0.648 1.165,0 0,0.647 -2.981,0 z"
         inkscape:connector-curvature="0"
         style="fill:#ffffff" />
      <polygon
         id="polygon13646"
         points="9.126,5.427 9.678,5.427 9.678,6.982 10.316,6.982 10.316,5.555 10.825,5.555 10.825,6.982 11.556,6.982 11.556,5.394 12.107,5.394 12.107,7.629 9.126,7.629 "
         style="fill:#ffffff" />
      <polygon
         id="polygon13648"
         points="9.126,2.977 9.678,2.977 9.678,4.531 10.316,4.531 10.316,3.104 10.825,3.104 10.825,4.531 11.556,4.531 11.556,2.944 12.107,2.944 12.107,5.179 9.126,5.179 "
         style="fill:#ffffff" />
      <polygon
         id="polygon13650"
         points="22.066,14.107 24.497,14.107 24.497,14.754 22.066,14.754 22.066,15.637 21.516,15.637 21.516,13.225 22.066,13.225 "
         style="fill:#ffffff" />
      <path
         id="path13652"
         d="m 22.864,12.405 0,-0.709 c 0,-0.289 -0.125,-0.445 -0.426,-0.445 -0.289,0 -0.413,0.156 -0.413,0.445 l 0,0.709 0.839,0 z m -1.348,0.648 0,-1.588 c 0,-0.528 0.372,-0.862 0.823,-0.862 0.351,0 0.613,0.14 0.746,0.466 l 0.01,0 c 0.083,-0.317 0.396,-0.409 0.696,-0.429 0.188,-0.013 0.538,-0.009 0.706,-0.124 l 0,0.647 c -0.188,0.078 -0.476,0.07 -0.714,0.103 -0.313,0.045 -0.451,0.166 -0.451,0.491 l 0,0.647 1.165,0 0,0.648 -2.981,0 z"
         inkscape:connector-curvature="0"
         style="fill:#ffffff" />
      <rect
         id="rect13654"
         height="0.64700001"
         width="2.9809999"
         y="9.7080002"
         x="21.516001"
         style="fill:#ffffff" />
      <path
         id="path13656"
         d="m 22.918,8.828 0,-0.503 c 0,-0.3 -0.066,-0.569 -0.446,-0.569 -0.381,0 -0.446,0.269 -0.446,0.569 l 0,0.503 0.892,0 z m -1.402,0.647 0,-1.327 c 0,-0.734 0.473,-1.019 0.956,-1.019 0.485,0 0.956,0.285 0.956,1.019 l 0,0.68 1.069,0 0,0.647 -2.981,0 z"
         inkscape:connector-curvature="0"
         style="fill:#ffffff" />
      <polygon
         id="polygon13658"
         points="21.516,6.243 23.946,6.243 23.946,4.808 24.497,4.808 24.497,6.89 21.516,6.89 "
         style="fill:#ffffff" />
      <polygon
         id="polygon13660"
         points="21.516,2.395 22.066,2.395 22.066,3.95 22.705,3.95 22.705,2.523 23.215,2.523 23.215,3.95 23.946,3.95 23.946,2.362 24.497,2.362 24.497,4.597 21.516,4.597 "
         style="fill:#ffffff" />
      <path
         id="path13662"
         d="m 1.85,15.088 5.556,0 0,0.913 -4.098,0 0,0.459 -0.739,0 C 2.527,16.092 2.26,15.856 1.85,15.823 l 0,-0.735 z"
         inkscape:connector-curvature="0"
         style="fill:#e2001a" />
      <path
         id="path13664"
         d="m 6.455,13.876 c 0.164,0 0.233,-0.04 0.233,-0.151 0,-0.111 -0.075,-0.138 -0.233,-0.138 l -3.654,0 c -0.157,0 -0.239,0.033 -0.239,0.15 0,0.106 0.083,0.139 0.239,0.139 l 3.654,0 z M 1.822,13.731 c 0,-0.925 0.157,-1.056 1.108,-1.056 l 3.395,0 c 0.931,0 1.108,0.117 1.108,1.044 0,0.932 -0.157,1.063 -1.108,1.063 l -3.394,0 C 2,14.783 1.822,14.678 1.822,13.731"
         inkscape:connector-curvature="0"
         style="fill:#e2001a" />
      <path
         id="path13666"
         d="m 3.643,10.42 c 0.288,0 0.507,0.052 0.76,0.157 l 2.251,0.946 0,-1.103 0.753,0 0,2.101 -0.754,0 -2.477,-1.045 C 4.025,11.411 3.882,11.345 3.587,11.345 l -0.786,0 c -0.158,0 -0.24,0.027 -0.24,0.146 0,0.105 0.082,0.138 0.24,0.138 l 0.965,0 0,0.906 -0.835,0 c -0.931,0 -1.109,-0.092 -1.109,-1.051 0,-0.88 0.13,-1.063 1.109,-1.063 l 0.712,0 z"
         inkscape:connector-curvature="0"
         style="fill:#e2001a" />
      <rect
         id="rect13668"
         height="0.755"
         width="0.97899997"
         y="9.4840002"
         x="4.2540002"
         style="fill:#e2001a" />
      <polygon
         id="polygon13670"
         points="1.85,9.279 1.85,7.467 2.575,7.467 7.406,8.294 7.406,9.227 2.575,8.379 2.575,9.279 "
         style="fill:#e2001a" />
      <polygon
         id="polygon13672"
         points="3.992,5.359 3.992,4.814 4.725,4.814 4.725,5.359 7.406,5.359 7.406,6.271 1.85,6.271 1.85,4.814 2.575,4.814 2.575,5.359 "
         style="fill:#e2001a" />
      <polygon
         id="polygon13674"
         points="7.406,3.866 7.406,4.68 1.85,4.68 1.85,3.617 4.512,3.282 4.512,3.236 1.85,2.901 1.85,1.837 7.406,1.837 7.406,2.651 4.122,2.618 4.122,2.671 7.406,3.019 7.406,3.5 4.122,3.847 4.122,3.899 "
         style="fill:#e2001a" />
    </g>
  </g>
</svg>
