<?xml version="1.0" encoding="UTF-8" standalone="no"?>
<svg
   xmlns:dc="http://purl.org/dc/elements/1.1/"
   xmlns:cc="http://creativecommons.org/ns#"
   xmlns:rdf="http://www.w3.org/1999/02/22-rdf-syntax-ns#"
   xmlns:svg="http://www.w3.org/2000/svg"
   xmlns="http://www.w3.org/2000/svg"
   viewBox="0 0 396.79999 88.875"
   height="88.875"
   width="396.79999"
   xml:space="preserve"
   version="1.1"
   id="svg2"><metadata
     id="metadata8"><rdf:RDF><cc:Work
         rdf:about=""><dc:format>image/svg+xml</dc:format><dc:type
           rdf:resource="http://purl.org/dc/dcmitype/StillImage" /></cc:Work></rdf:RDF></metadata><defs
     id="defs6" /><g
     transform="matrix(1.25,0,0,-1.25,0,88.875)"
     id="g10"><g
       transform="scale(0.1,0.1)"
       id="g12"><path
         id="path14"
         style="fill:#ffffff;fill-opacity:1;fill-rule:nonzero;stroke:none"
         d="m 1997.74,676.957 c -85.86,0 -166.58,-33.437 -227.3,-94.152 -60.71,-60.711 -94.15,-141.438 -94.15,-227.305 0,-85.859 33.44,-166.582 94.15,-227.297 60.72,-60.7108 141.44,-94.1483 227.3,-94.1483 85.86,0 166.59,33.4375 227.3,94.1483 60.72,60.715 94.16,141.438 94.16,227.297 0,85.867 -33.44,166.594 -94.16,227.305 -60.71,60.715 -141.44,94.152 -227.3,94.152 z m 0,-676.95309375 c -94.96,0 -184.23,36.97269375 -251.38,104.11709375 -67.14,67.152 -104.12,156.43 -104.12,251.379 0,94.961 36.98,184.238 104.12,251.387 67.15,67.14 156.42,104.121 251.38,104.121 94.96,0 184.23,-36.981 251.38,-104.121 67.15,-67.149 104.13,-156.426 104.13,-251.387 0,-94.949 -36.98,-184.227 -104.13,-251.379 C 2181.97,36.9766 2092.7,0.00390625 1997.74,0.00390625" /><path
         id="path16"
         style="fill:#ffffff;fill-opacity:1;fill-rule:nonzero;stroke:none"
         d="m 1997.74,366.984 0,-22.957" /><path
         id="path18"
         style="fill:#ffffff;fill-opacity:1;fill-rule:nonzero;stroke:none"
         d="m 2086.54,317.387 c -14.86,-35.149 -49.67,-59.809 -90.23,-59.809 -54.08,0 -97.93,43.84 -97.93,97.922 0,54.094 43.85,97.93 97.93,97.93 54.08,0 97.92,-43.836 97.92,-97.93 0,-13.516 -2.74,-26.395 -7.69,-38.113" /><path
         id="path20"
         style="fill:#ffffff;fill-opacity:1;fill-rule:nonzero;stroke:none"
         d="m 1964.85,523.332 c 7.29,35.891 99.02,99.27 99.02,99.27 0,0 -32.67,-52.883 -32.22,-118.547 0.14,-19.2 -24.59,-29.082 -43.04,-23.758 -18.44,5.32 -27.57,24.219 -23.76,43.035" /><path
         id="path22"
         style="fill:#ffffff;fill-opacity:1;fill-rule:nonzero;stroke:none"
         d="m 2030.63,187.68 c -7.28,-35.891 -99.02,-99.2698 -99.02,-99.2698 0,0 32.67,52.8828 32.22,118.5428 -0.13,19.199 24.59,29.082 43.04,23.762 18.45,-5.32 27.58,-24.219 23.76,-43.035" /><path
         id="path24"
         style="fill:#ffffff;fill-opacity:1;fill-rule:nonzero;stroke:none"
         d="m 1832.66,400.18 c -28.97,22.39 -45.28,132.683 -45.28,132.683 0,0 32.99,-52.675 92.09,-81.289 17.28,-8.371 15.22,-34.914 2.3,-49.109 -12.93,-14.192 -33.92,-14.035 -49.11,-2.285" /><path
         id="path26"
         style="fill:#ffffff;fill-opacity:1;fill-rule:nonzero;stroke:none"
         d="m 2162.82,310.832 c 28.98,-22.391 45.29,-132.684 45.29,-132.684 0,0 -33,52.672 -92.1,81.29 -17.28,8.359 -15.22,34.91 -2.29,49.109 12.93,14.191 33.92,14.031 49.1,2.285" /><path
         id="path28"
         style="fill:#ffffff;fill-opacity:1;fill-rule:nonzero;stroke:none"
         d="m 1873.12,238.391 c -34.27,-12.918 -136.73,31.054 -136.73,31.054 0,0 62.16,0.45 117.52,35.762 16.19,10.32 37.71,-5.352 43.01,-23.809 5.31,-18.449 -5.84,-36.242 -23.8,-43.007" /><path
         id="path30"
         style="fill:#ffffff;fill-opacity:1;fill-rule:nonzero;stroke:none"
         d="m 2122.37,472.617 c 34.26,12.922 136.72,-31.051 136.72,-31.051 0,0 -62.16,-0.453 -117.52,-35.761 -16.18,-10.325 -37.71,5.347 -43.01,23.808 -5.3,18.446 5.85,36.239 23.81,43.004" /><path
         id="path32"
         style="fill:#ffffff;fill-opacity:1;fill-rule:nonzero;stroke:none"
         d="m 355.504,676.957 c -85.863,0 -166.586,-33.437 -227.301,-94.152 C 67.4922,522.094 34.0547,441.367 34.0547,355.5 c 0,-85.859 33.4375,-166.582 94.1483,-227.297 60.715,-60.7108 141.438,-94.1483 227.301,-94.1483 85.863,0 166.586,33.4375 227.301,94.1483 60.715,60.715 94.156,141.438 94.156,227.297 0,85.867 -33.441,166.594 -94.156,227.305 -60.715,60.715 -141.438,94.152 -227.301,94.152 z m 0,-676.95309375 C 260.547,0.00390625 171.27,36.9766 104.129,104.121 36.9766,171.273 0,260.551 0,355.5 c 0,94.961 36.9766,184.238 104.129,251.387 67.141,67.14 156.418,104.121 251.375,104.121 94.961,0 184.234,-36.981 251.383,-104.121 67.14,-67.149 104.121,-156.426 104.121,-251.387 0,-94.949 -36.981,-184.227 -104.121,-251.379 C 539.738,36.9766 450.465,0.00390625 355.504,0.00390625" /><path
         id="path34"
         style="fill:#ffffff;fill-opacity:1;fill-rule:nonzero;stroke:none"
         d="m 580.297,259.602 c -29.692,0 -59.383,9.355 -83.059,28.066 l -82.355,65.078 c -34.742,27.449 -89.16,27.449 -123.903,0 l -36.054,-28.496 0.019,-0.02 -41.175,-32.539 C 166.418,254.27 95,254.27 47.6484,291.691 L 6.46875,324.23 27.582,350.949 68.7617,318.41 c 34.7343,-27.449 89.1603,-27.449 123.8983,0 l 36.051,28.488 -0.016,0.028 41.172,32.527 c 47.356,37.426 118.778,37.426 166.129,0 l 82.356,-65.066 c 34.734,-27.449 89.16,-27.449 123.902,0 l 41.168,32.539 21.113,-26.719 -41.172,-32.539 c -23.675,-18.711 -53.371,-28.066 -83.066,-28.066" /><path
         id="path36"
         style="fill:#ffffff;fill-opacity:1;fill-rule:nonzero;stroke:none"
         d="m 1176.62,676.957 c -85.86,0 -166.59,-33.437 -227.3,-94.152 -60.711,-60.711 -94.148,-141.438 -94.148,-227.305 0,-85.859 33.437,-166.582 94.148,-227.297 60.71,-60.7108 141.44,-94.1483 227.3,-94.1483 85.87,0 166.59,33.4375 227.31,94.1483 60.71,60.715 94.15,141.438 94.15,227.297 0,85.867 -33.44,166.594 -94.15,227.305 -60.72,60.715 -141.44,94.152 -227.31,94.152 z m 0,-676.95309375 C 1081.67,0.00390625 992.387,36.9766 925.246,104.121 858.098,171.273 821.117,260.551 821.117,355.5 c 0,94.961 36.981,184.238 104.129,251.387 67.141,67.14 156.424,104.121 251.374,104.121 94.96,0 184.24,-36.981 251.38,-104.121 67.15,-67.149 104.13,-156.426 104.13,-251.387 0,-94.949 -36.98,-184.227 -104.13,-251.379 C 1360.86,36.9766 1271.58,0.00390625 1176.62,0.00390625" /><path
         id="path38"
         style="fill:#ffffff;fill-opacity:1;fill-rule:nonzero;stroke:none"
         d="m 1181.08,627.504 c 38.51,0 77.02,-47.512 77.02,-106.113 0,-28.43 -13.02,-50.688 -35.75,-98.828 -3.83,-8.125 -29.95,-54.575 -41.27,-72.981" /><path
         id="path40"
         style="fill:#ffffff;fill-opacity:1;fill-rule:nonzero;stroke:none"
         d="m 1429.44,223.441 c -17.25,-34.433 -76.97,-47.597 -129.37,-21.347 -25.42,12.722 -39.48,34.336 -72.36,76.211 -5.55,7.066 -35.38,51.218 -46.76,69.59" /><path
         id="path42"
         style="fill:#ffffff;fill-opacity:1;fill-rule:nonzero;stroke:none"
         d="m 956.938,182.434 c -22.922,30.949 -7.684,90.168 39.402,125.058 22.84,16.926 48.47,19.719 100.69,30.117 8.81,1.758 61.68,8.426 83.2,10.286" /><path
         id="path44"
         style="fill:#ffffff;fill-opacity:1;fill-rule:nonzero;stroke:none"
         d="m 3157.33,355.5 c 0,-186.934 -151.53,-338.4766 -338.47,-338.4766 -186.94,0 -338.48,151.5426 -338.48,338.4766 0,186.945 151.54,338.488 338.48,338.488 186.94,0 338.47,-151.543 338.47,-338.488" /><path
         id="path46"
         style="fill:#ffffff;fill-opacity:1;fill-rule:nonzero;stroke:none"
         d="m 2818.86,676.957 c -85.86,0 -166.58,-33.437 -227.3,-94.152 -60.71,-60.711 -94.15,-141.438 -94.15,-227.305 0,-85.859 33.44,-166.582 94.15,-227.297 60.72,-60.7108 141.44,-94.1483 227.3,-94.1483 85.87,0 166.59,33.4375 227.3,94.1483 60.72,60.715 94.15,141.438 94.15,227.297 0,85.867 -33.43,166.594 -94.15,227.305 -60.71,60.715 -141.43,94.152 -227.3,94.152 z m 0,-676.95309375 c -94.95,0 -184.23,36.97269375 -251.38,104.11709375 -67.15,67.152 -104.12,156.43 -104.12,251.379 0,94.961 36.97,184.238 104.12,251.387 67.15,67.14 156.43,104.121 251.38,104.121 94.96,0 184.24,-36.981 251.38,-104.121 67.14,-67.149 104.13,-156.426 104.13,-251.387 0,-94.949 -36.99,-184.227 -104.13,-251.379 C 3003.1,36.9766 2913.82,0.00390625 2818.86,0.00390625" /></g></g></svg>